<svg xmlns="http://www.w3.org/2000/svg" viewBox="0 0 481.2 125.1"><style>.st2{fill:#010101}.st3{fill:#231f20}</style><g id="Ebene_4"><g id="Ebene_2_1_"><path d="M195.4 98.4h2c1.6 0 2.9.8 2.9 2.4 0 1.7-1.4 2.4-3 2.4h-.8v2.9h-1.1v-7.7zm1.1 3.9h.8c.7 0 1.9-.3 1.9-1.5s-1.2-1.5-1.8-1.5h-1v3zm4.7-.2c0-.5 0-.9-.1-1.4h1l.1 1.4h.1c.2-.7.8-1.5 1.6-1.5.3 0 .5.1.7.2v.9c-.2-.1-.4-.1-.6-.1-1 0-1.6 1-1.7 2.1v2.4h-1v-4zm6.3-1.5c1.8 0 2.6 1.6 2.6 2.8 0 1.4-.9 2.9-2.6 2.9s-2.7-1.4-2.7-2.9c0-1.2.8-2.8 2.7-2.8zm0 4.9c.8 0 1.6-.7 1.6-2.1 0-1.4-.7-2.1-1.6-2.1-.7 0-1.6.4-1.6 2.1-.1 1.1.4 2.1 1.6 2.1zm3.1-4.8h.9l.2-1.6h.8v1.6h1.5v.8h-1.5v3c0 .5.2.8.7.8.3 0 .6-.1.8-.2v.8c-.2.1-.5.3-.9.3-1 0-1.6-.6-1.6-1.7v-3h-.9v-.8zm6.6-.1c1.8 0 2.6 1.6 2.6 2.8 0 1.4-.9 2.9-2.6 2.9s-2.7-1.4-2.7-2.9c0-1.2.8-2.8 2.7-2.8zm0 4.9c.8 0 1.6-.7 1.6-2.1 0-1.4-.7-2.1-1.6-2.1-.7 0-1.6.4-1.6 2.1 0 1.1.5 2.1 1.6 2.1zm3.1-4.8h.9l.2-1.6h.8v1.6h1.5v.8h-1.5v3c0 .5.2.8.7.8.3 0 .6-.1.8-.2v.8c-.2.1-.5.3-.9.3-1 0-1.6-.6-1.6-1.7v-3h-.9v-.8zm6.7 6.5c-.3.8-.9 1.1-1.5 1.1-.2 0-.5 0-.7-.1v-.9c.2.1.4.1.6.1.3 0 .6-.1.7-.4.1-.2.3-.7.3-.9.1-.2-.1-.4-.3-.4l-1.9-5h1.1l1.5 4.3h.1l1.3-4.3h1.1c-1.9 5.4-2.1 5.8-2.3 6.5zm3.9 1h-1v-7.4h.9v.8h.1c.4-.6.9-.9 1.6-.9 1.5 0 2.3 1.3 2.3 2.8 0 1.6-.8 2.8-2.2 2.8-1 0-1.4-.6-1.6-.9h-.1v2.8zm1.3-6.8c-.7 0-1.3.8-1.4 1.3v1.3c0 .6.6 1.4 1.4 1.4 1 0 1.4-.9 1.4-2 .1-1.2-.4-2-1.4-2zm4 2.2c0 1.1.6 1.9 1.6 1.9.7 0 1.2-.4 1.3-1h1c-.1.9-.9 1.8-2.3 1.8-1.5 0-2.5-1.1-2.5-2.9 0-1.5.9-2.8 2.5-2.8 2 0 2.5 1.7 2.4 3h-4zm2.8-.8c0-.5-.3-1.5-1.4-1.5-.7 0-1.3.5-1.4 1.5h2.8zm-43.6 5.7h4.3v.9h-3.2v2.6h3v.9h-3v3.4h-1.1v-7.8zm9.8 2.3v4.5c0 .3 0 .6.1.9h-1v-.9h-.1c-.1.2-.7 1-1.7 1-.7 0-1.8-.4-1.8-2v-3.4h1v3.4c0 .7.3 1.2 1 1.2s1.4-.6 1.5-1.6v-3.1h1zm1 1c0-.3 0-.6-.1-.9h1v.9h.1c.1-.2.7-1 1.7-1 .6 0 1.8.3 1.8 2v3.5h-1v-3.5c0-.7-.3-1.2-.9-1.2-.7 0-1.4.7-1.6 1.6v3.1h-1v-4.5zm9.1-3.3h1v7.7h-.9v-.8h-.1c-.4.6-.9.9-1.6.9-1.5 0-2.3-1.3-2.3-2.8 0-1.6.8-2.8 2.2-2.8 1 0 1.4.6 1.6.9h.1v-3.1zm-1.4 7c.7 0 1.3-.8 1.3-1.3v-1.3c0-.6-.6-1.4-1.4-1.4-1 0-1.4.9-1.4 2 0 1.2.5 2 1.5 2z" fill="#1d1d1b"/><path id="XMLID_19_" d="M225.5 37.6l6.6.8 7.8 15-7.8 12.6s-8.9 2.3-12.3 3.2H212v20.3l6.3 2.2-.2 2.2-11.2-.2-11.2.2-.2-2.2 6.3-2.2V41.9l-6.3-2.2.2-2.2 29.8.1zM212 64.9l6.5 1.2 10-7 3.1-5.7-3.1-5.7-10-6.6-6.5.9v22.9z" fill="#099acf"/></g><path class="st2" d="M377.4 49.3c-2.2 0-3.7-1.6-3.7-3.6s1.5-3.6 3.7-3.6 3.7 1.6 3.7 3.6c-.1 2-1.5 3.6-3.7 3.6zm0-5.9c-1.3 0-2 .8-2 2.2 0 1.4.7 2.2 2 2.2s2-.8 2-2.2c0-1.3-.8-2.2-2-2.2zm8.1 3.5v2.4h-1.6v-7h2.5c2 0 2.8 1 2.8 2.3 0 1.4-.9 2.4-2.8 2.4h-.9v-.1zm0-1.3h.8c.8 0 1.2-.4 1.2-1.2 0-.6-.4-1.1-1.2-1.1h-.8v2.3zm11.2-3.4v1.3h-2.9v1.6h2.2v1.2h-2.2V48h2.9v1.3h-4.5v-7l4.5-.1zm4.9.2l3.3 4.2v-4.5h1.4v7h-.8c-.2 0-.4-.1-.6-.3l-3.3-4.2v4.5h-1.4v-7h.9c.2.1.3.1.5.3zm-25.9 15.7h.3c.2 0 .4-.1.5-.2l1.6-2.3c.2-.2.4-.3.7-.3h1.4l-2.1 2.8c-.2.2-.3.3-.5.4.2.1.4.2.6.5l2.1 3.3h-1.5c-.4 0-.5-.1-.6-.3l-1.6-2.5c-.1-.2-.3-.2-.6-.2h-.4v3H374v-7h1.6l.1 2.8zm9.2-2.6l3.3 4.2v-4.5h1.4v7h-.8c-.2 0-.4-.1-.6-.3l-3.3-4.2v4.5h-1.4v-7h.9c.2 0 .3.1.5.3zm11.5 6.8c-2.2 0-3.7-1.6-3.7-3.6s1.5-3.6 3.7-3.6 3.7 1.6 3.7 3.6-1.5 3.6-3.7 3.6zm0-5.8c-1.3 0-2 .8-2 2.2 0 1.4.7 2.2 2 2.2 1.2 0 2-.8 2-2.2 0-1.4-.8-2.2-2-2.2zm5.4-1.3h1.4c.3 0 .5.1.5.4l1 3.7c.1.2.1.5.2.8.1-.3.1-.6.2-.8l1.1-3.7c.1-.2.3-.4.5-.4h.5c.3 0 .5.1.5.4l1.1 3.7c.1.2.2.5.2.8.1-.3.1-.5.2-.8l1-3.7c.1-.2.3-.4.5-.4h1.3l-2.2 7h-1.5l-1.3-4.4c0-.1-.1-.3-.1-.5 0 .2-.1.3-.1.5l-1.3 4.4H404l-2.2-7zm14.9 5.8h2.6v1.3H415v-7h1.6V61h.1zm10.6-5.8v1.3h-2.9v1.6h2.2v1.2h-2.2V61h2.9v1.3h-4.5v-7h4.5v-.1zm6.1 7.1h-2.7v-7h2.7c2.2 0 3.7 1.5 3.7 3.5s-1.5 3.5-3.7 3.5zm0-5.8h-1.1V61h1.1c1.2 0 2-.9 2-2.3s-.7-2.2-2-2.2zm11 4.4v-1.1h-.7c-.2 0-.3-.1-.3-.3v-.9h2.5v3c-.7.5-1.5.8-2.7.8-2.1 0-3.6-1.5-3.6-3.6s1.5-3.6 3.7-3.6c1.2 0 2.1.4 2.6.9l-.5.7c-.1.1-.2.2-.4.2-.1 0-.2 0-.3-.1-.5-.3-.9-.4-1.5-.4-1.2 0-2 .9-2 2.2 0 1.5.9 2.3 2.1 2.3.5.1.8 0 1.1-.1zm9.3-5.7v1.3h-2.9v1.6h2.2v1.2h-2.2V61h2.9v1.3h-4.5v-7h4.5v-.1zm-75.1 13.1v1.3h-2.9v1.8h2.4v1.3h-2.4v2.7h-1.6v-7h4.5v-.1zm10.7 3.5c0 .5-.1 1-.3 1.4-.2.4-.4.8-.7 1.1-.3.3-.7.6-1.2.8-.5.2-.9.3-1.5.3s-1.1-.1-1.5-.3c-.5-.2-.8-.4-1.2-.8-.3-.3-.6-.7-.7-1.1-.2-.4-.3-.9-.3-1.4 0-.5.1-1 .3-1.4.2-.4.4-.8.7-1.1.3-.3.7-.6 1.2-.8s.9-.3 1.5-.3 1.1.1 1.5.3c.4.2.8.4 1.2.8s.6.7.7 1.1c.2.4.3.9.3 1.4zm-1.7 0c0-.4 0-.7-.1-.9-.1-.3-.2-.5-.4-.7-.2-.2-.4-.3-.6-.4-.2-.1-.5-.2-.8-.2-.3 0-.6.1-.8.2-.2.1-.5.2-.6.4s-.3.4-.4.7c-.1.3-.1.6-.1.9 0 .4 0 .7.1.9.1.3.2.5.4.7.2.2.4.3.6.4.2.1.5.2.8.2.3 0 .6-.1.8-.2.2-.1.5-.2.6-.4.2-.2.3-.4.4-.7.1-.2.1-.6.1-.9zm8.3 2.2c.2 0 .4 0 .6-.1.2-.1.3-.2.4-.3.1-.1.2-.3.3-.5.1-.2.1-.4.1-.7v-4.2h1.6v4.2c0 .4-.1.8-.2 1.2-.1.4-.3.7-.6.9s-.6.5-.9.6c-.4.1-.8.2-1.3.2s-.9-.1-1.3-.2-.7-.4-.9-.6c-.3-.3-.5-.6-.6-.9s-.2-.8-.2-1.2v-4.2h1.6v4.2c0 .2 0 .5.1.7.1.2.2.4.3.5.1.1.3.2.4.3.2.1.4.1.6.1zm8-5.7h.1s.1 0 .1.1l.1.1 3.3 4.2v-4.5h1.4v7h-.8c-.1 0-.2 0-.3-.1s-.2-.1-.2-.2l-3.3-4.2v4.5h-1.4v-7h.9c0 .1.1.1.1.1zm15.6 3.5c0 .5-.1 1-.3 1.4-.2.4-.4.8-.7 1.1-.3.3-.7.6-1.2.7-.5.2-.9.3-1.5.3h-2.7v-7h2.7c.5 0 1.1.1 1.5.3.4.2.8.4 1.2.7.3.3.6.7.7 1.1.2.4.3.9.3 1.4zm-1.7 0c0-.4 0-.7-.1-.9-.1-.3-.2-.5-.4-.7s-.4-.4-.6-.5-.5-.2-.8-.2h-1.1V74h1.1c.3 0 .6-.1.8-.2.2-.1.5-.3.6-.5s.3-.4.4-.7c.1-.1.1-.5.1-.8zm11.9 3.5h-1.3c-.1 0-.3 0-.4-.1-.1-.1-.2-.2-.2-.3l-.4-1.2h-2.7l-.4 1.2c0 .1-.1.2-.2.2-.1.1-.2.1-.3.1h-1.3l2.7-7h1.7l2.8 7.1zm-4.5-2.7h1.9l-.6-1.9c0-.1-.1-.3-.1-.4-.1-.2-.1-.4-.2-.5-.1.2-.1.4-.2.5-.1.2-.1.3-.2.4l-.6 1.9zm13.1-4.3v1.3h-2v5.7h-1.6v-5.7h-2v-1.3h5.6zm5.4 7H442v-7h1.6v7zm11.1-3.5c0 .5-.1 1-.3 1.4-.2.4-.4.8-.7 1.1-.3.3-.7.6-1.2.8-.5.2-.9.3-1.5.3s-1.1-.1-1.5-.3c-.5-.2-.8-.4-1.2-.8-.3-.3-.6-.7-.7-1.1-.2-.4-.3-.9-.3-1.4 0-.5.1-1 .3-1.4.2-.4.4-.8.7-1.1.3-.3.7-.6 1.2-.8.5-.2.9-.3 1.5-.3s1.1.1 1.5.3.8.4 1.2.8.6.7.7 1.1c.2.4.3.9.3 1.4zm-1.6 0c0-.4 0-.7-.1-.9-.1-.3-.2-.5-.4-.7-.2-.2-.4-.3-.6-.4-.2-.1-.5-.2-.8-.2-.3 0-.6.1-.8.2-.2.1-.5.2-.6.4s-.3.4-.4.7c-.1.3-.1.6-.1.9 0 .4 0 .7.1.9.1.3.2.5.4.7.2.2.4.3.6.4.2.1.5.2.8.2.3 0 .6-.1.8-.2.2-.1.5-.2.6-.4.2-.2.3-.4.4-.7 0-.2.1-.6.1-.9zm6.3-3.5h.1s.1 0 .1.1l.1.1 3.3 4.2v-4.5h1.4v7h-.8c-.1 0-.2 0-.3-.1s-.2-.1-.2-.2l-3.3-4.2v4.5h-1.4v-7h.9c0 .1.1.1.1.1z"/><path transform="rotate(-53.237 346.377 33.97)" class="st2" d="M335.1 32.6h22.6v2.7h-22.6z"/><path transform="rotate(-63.519 337.798 35.525)" class="st2" d="M332.4 34.2h10.9v2.7h-10.9z"/><path transform="rotate(-73.805 333.11 30.365)" class="st2" d="M324.6 29h17.1v2.7h-17.1z"/><path class="st2" d="M327.2 37.8l-2.7-.3 1.1-10.8 2.7.2zm-7.7-.1l-.9-12.2 2.7-.2.9 12.2zm-4.9 1l-2.1-8 2.6-.7 2.2 8z"/><path transform="rotate(-24.956 310.075 37.534)" class="st2" d="M308.7 34.7h2.7v5.6h-2.7z"/><path class="st2" d="M305.8 43.3l-1.3-1.7 2.3-1.6 1.2 1.8zm-3.6 3.5l-6.4-6.3 1.9-2 6.4 6.3zm-3 4l-9.9-6.8 1.5-2.3 9.9 6.8zm-2.2 4.5l-6.3-2.8 1.2-2.5 6.2 2.8zm-19.9.3l18.5 4.4.7-2.6-18.5-4.5z"/><path transform="rotate(-86.669 288.313 63.256) scale(.99999)" class="st2" d="M286.9 56.3h2.7v13.8h-2.7z"/><path transform="rotate(-6.944 288.66 69.451)" class="st2" d="M281.9 68.1h13.5v2.7h-13.5z"/><path transform="rotate(-17.241 294.89 73.985)" class="st2" d="M293.3 72.6h3.1v2.7h-3.1z"/><path transform="rotate(-27.514 293.264 80.736)" class="st2" d="M287.6 79.4h11.3v2.7h-11.3z"/><path transform="rotate(-37.805 296.15 86.064)" class="st2" d="M290 84.7h12.2v2.7H290z"/><path transform="rotate(-48.101 300.409 90.41)" class="st2" d="M294.4 89h11.9v2.7h-11.9z"/><path transform="rotate(-58.386 306.925 91.3)" class="st2" d="M304.2 89.9h5.5v2.7h-5.5z"/><path class="st2" d="M310.2 101.7l-2.5-1 3.9-10 2.5 1z"/><path transform="rotate(-78.954 316.664 97.4)" class="st2" d="M311.8 96h9.8v2.7h-9.8z"/><path class="st2" d="M323.9 99.9h-2.8l.1-6.8h2.7zm4.5 6.1l-2.2-13.1 2.7-.4 2.2 13z"/><path transform="rotate(-19.814 333.731 95.231)" class="st2" d="M332.4 91.2h2.7v8h-2.7z"/><path class="st2" d="M335.7 90l9.9 16.9 2.4-1.3-9.9-16.9zm5.8-1l-1.5-1.6 2-1.9 1.5 1.6zm8.9.6l-6.8-5.6 1.7-2.1 6.8 5.5zm3.2-5.7l-7-3.9 1.3-2.4 7 3.9zm-1.4-7.2l-3.4-1.2.9-2.6 3.4 1.2z"/><path transform="rotate(-81.524 355.723 70.177)" class="st2" d="M354.4 64.9h2.7v10.6h-2.7z"/><path class="st2" d="M350.8 65.8l-.1-2.7 6.8-.3v2.8z"/><path transform="rotate(-12.095 354.332 58.558)" class="st2" d="M350.1 57.2h8.5v2.7h-8.5z"/><path class="st2" d="M349.2 56l-1-2.6 5.3-2.2 1.1 2.6zm-2.1-4.6l-1.5-2.3 14.3-9.1 1.5 2.3zm-2.8-4l-1.9-2 2.1-2.1 1.9 2zm-23.4 15.8c-.2-.2-.5-.4-.8-.6-.3-.1-.7-.2-1.1-.2h-1.4v5.8h1.4c.4 0 .8-.1 1.1-.2.3-.1.6-.3.8-.6.2-.3.4-.6.5-.9.1-.4.2-.8.2-1.2s-.1-.9-.2-1.2c-.2-.3-.3-.6-.5-.9z"/><path class="st2" d="M340.1 65.8l-.1-2-6 .2 5.9-1.3-.4-2-5.9 1.3 5.6-2.3-.8-1.8-5.6 2.3 5.1-3.3-1.1-1.7-5.1 3.3 4.4-4.1-1.4-1.5-4.4 4.1 3.6-4.9-1.6-1.2-3.6 4.9 2.7-5.4-1.8-.9L327 55l1.7-5.8-1.9-.6-1.7 5.8.6-6-2-.2-.7 6.2-.5-6.3-2 .2.5 6-1.5-5.9-1.9.5 1.5 5.9-2.6-5.5-1.8.8 2.6 5.5-3.5-5-1.6 1.2 3.5 5-4.3-4.2L310 54l4.3 4.2-5-3.4-1.1 1.7 5 3.4-5.5-2.5-.8 1.8 5.5 2.5-5.9-1.4-.5 1.9 5.9 1.4-6.1-.4-.1 2 6.1.4-6 .7.2 2 6-.7-5.8 1.8.6 1.9 5.8-1.8-5.4 2.8.9 1.8 5.4-2.8-4.8 3.7 1.2 1.6 4.8-3.7-4.1 4.5 1.5 1.3 4.1-4.5-3.2 5.2 1.7 1.1 3.2-5.2-2.2 5.7 1.9.7 2.2-5.7-1.2 6 2 .4 1.2-6-.1 6.1h2l.1-6.1 1 6 2-.3-1-6 2.1 5.7 1.9-.7-2.1-5.7 3 5.2 1.7-1-3-5.2 3.9 4.6 1.5-1.3-3.9-4.6 4.7 3.8 1.3-1.5-4.7-3.8 5.3 2.9 1-1.8-5.3-2.9 5.7 2 .6-1.9-5.7-2 6 .9.3-2-6-.9 6-.1zm-16.7 1.4c-.2.6-.5 1-1 1.4-.4.4-.9.7-1.5.9-.6.2-1.2.3-1.9.3h-3.5v-9.1h3.5c.7 0 1.4.1 1.9.3.6.2 1.1.5 1.5.9.4.4.7.9 1 1.4s.3 1.2.3 1.8c0 .9-.1 1.5-.3 2.1zm7.1-4.8h-3.7v2.1h2.9v1.6h-2.9v2.2h3.7v1.6h-5.8v-9.1h5.8v1.6zm49.4 20.9c0 .5-.1 1-.2 1.4-.2.4-.4.8-.7 1.1-.3.3-.6.5-1.1.7-.4.2-.9.2-1.4.2h-2.6v-6.9h2.6c.5 0 1 .1 1.4.2.4.2.8.4 1.1.7.3.3.5.7.7 1.1.1.5.2 1 .2 1.5zm-1 0c0-.4-.1-.8-.2-1.1-.1-.3-.3-.6-.5-.8-.2-.2-.5-.4-.8-.5-.3-.1-.6-.2-1-.2h-1.6V86h1.6c.4 0 .7-.1 1-.2.3-.1.6-.3.8-.5.2-.2.4-.5.5-.8.2-.4.2-.8.2-1.2zm9.4-3.4v.8H385V83h2.7v.7H385V86h3.3v.8H384v-6.9h4.3zm6.8 6.1c.3 0 .5-.1.8-.1.2-.1.4-.2.6-.4s.3-.4.4-.6c.1-.2.1-.5.1-.8v-4.2h.9v4.2c0 .4-.1.8-.2 1.1s-.3.6-.5.9c-.2.2-.5.4-.9.6-.3.1-.7.2-1.1.2-.4 0-.8-.1-1.1-.2-.3-.1-.6-.3-.9-.6-.2-.2-.4-.5-.5-.9-.1-.3-.2-.7-.2-1.1v-4.2h.9v4.2c0 .3 0 .6.1.8.1.2.2.4.4.6.2.2.4.3.6.4.1.1.3.1.6.1zm11.9-6.1v.8h-2.2v6.1h-.9v-6.1h-2.2v-.8h5.3zm7.4 1.1c0 .1-.1.1-.1.1h-.1c-.1 0-.1 0-.2-.1s-.2-.1-.3-.2c-.1-.1-.2-.1-.4-.2s-.3-.1-.6-.1c-.2 0-.4 0-.6.1-.2.1-.3.1-.4.2-.1.1-.2.2-.2.3-.1.1-.1.3-.1.4 0 .2.1.4.1.5.1.1.2.2.4.3.2.1.3.2.5.2.2.1.4.1.6.2.2.1.4.2.6.2.2.1.4.2.5.3.2.1.3.3.4.5.1.2.1.4.1.7 0 .3-.1.6-.2.8-.1.3-.2.5-.5.7-.2.2-.4.4-.7.5s-.6.2-1 .2-.9-.1-1.2-.2c-.4-.2-.7-.4-.9-.7l.3-.4.1-.1h.1c.1 0 .1 0 .2.1s.2.2.3.2c.1.1.3.2.5.2s.4.1.7.1c.2 0 .4 0 .6-.1.2-.1.3-.1.4-.3s.2-.2.3-.4c.1-.2.1-.3.1-.5s-.1-.4-.1-.5-.2-.2-.4-.3c-.2-.1-.3-.2-.5-.2-.2-.1-.4-.1-.6-.2-.2-.1-.4-.1-.6-.2-.2-.1-.4-.2-.5-.3-.2-.1-.3-.3-.4-.5-.1-.2-.1-.5-.1-.8 0-.2.1-.5.1-.7.1-.2.2-.4.4-.6.2-.2.4-.3.7-.4.3-.1.6-.2.9-.2.4 0 .7.1 1.1.2.3.1.6.3.8.5l-.1.7zm9.2 4.3c.1 0 .1 0 .1.1l.4.4c-.3.3-.6.6-1 .8-.4.2-.9.3-1.5.3-.5 0-.9-.1-1.4-.3-.4-.2-.8-.4-1-.7-.3-.3-.5-.7-.7-1.1-.2-.4-.2-.9-.2-1.4 0-.5.1-1 .2-1.4.2-.4.4-.8.7-1.1.3-.3.7-.5 1.1-.7.4-.2.9-.3 1.4-.3s.9.1 1.3.2c.4.2.7.4 1 .6l-.3.4-.1.1h-.1s-.1 0-.1-.1c-.1 0-.1-.1-.2-.1s-.1-.1-.2-.1c-.1-.1-.2-.1-.3-.1-.1 0-.3-.1-.4-.1s-.3-.1-.5-.1c-.4 0-.7.1-1 .2-.3.1-.6.3-.8.5s-.4.5-.5.9c-.1.3-.2.7-.2 1.1 0 .4.1.8.2 1.1s.3.6.5.9c.2.2.5.4.8.5.3.1.6.2.9.2h.6c.2 0 .3-.1.5-.1.1-.1.3-.1.4-.2s.2-.2.4-.3c-.1 0 0-.1 0-.1zm10.2 1.5h-.9v-3.1h-3.7v3.1h-.9v-6.9h.9V83h3.7v-3.1h.9v6.9zm5.5-.8h3v.8h-3.9v-6.9h.9V86zm12.5.8h-.7c-.1 0-.2 0-.2-.1-.1 0-.1-.1-.1-.2l-.6-1.7H447l-.6 1.7c0 .1-.1.1-.1.2-.1 0-.1.1-.2.1h-.7l2.8-6.9h.9l2.7 6.9zm-4.5-2.6h2.6l-1.1-2.8c-.1-.2-.1-.4-.2-.6 0 .1-.1.2-.1.4 0 .1-.1.2-.1.3l-1.1 2.7zm8.9-4.3l.1.1 4 5.2v-5.3h.8v6.9h-.7c-.1 0-.1-.1-.1-.1l-4-5.2v5.3h-.8v-6.9h.7zm15.4 3.4c0 .5-.1 1-.2 1.4-.2.4-.4.8-.7 1.1s-.6.5-1.1.7c-.4.2-.9.2-1.4.2h-2.6v-6.9h2.6c.5 0 1 .1 1.4.2.4.2.8.4 1.1.7.3.3.5.7.7 1.1.1.5.2 1 .2 1.5zm-1 0c0-.4-.1-.8-.2-1.1-.1-.3-.3-.6-.5-.8-.2-.2-.5-.4-.8-.5-.3-.1-.6-.2-1-.2h-1.6V86h1.6c.4 0 .7-.1 1-.2.3-.1.6-.3.8-.5s.4-.5.5-.8c.2-.4.2-.8.2-1.2z"/></g><g id="Ebene_2"><path class="st3" d="M62.9 44c0 .4 0 .7-.1.9-.1.3-.2.5-.4.7l-.5.5-.6.3c.3 0 .5.1.8.3.2.1.4.3.6.5.2.2.3.5.4.7.1.3.2.6.2.9 0 .4-.1.8-.2 1.1-.1.3-.4.6-.6.9-.3.2-.7.4-1.1.6-.4.1-1 .2-1.6.2h-2.1V41.4h2c.6 0 1.1.1 1.6.2.4.1.8.3 1.1.5.3.2.5.5.6.8-.2.3-.1.7-.1 1.1zm-1.3 0c0-.5-.2-.9-.5-1.2-.3-.3-.9-.5-1.6-.5h-.7v3.5h.7c.7 0 1.2-.2 1.6-.5.3-.2.5-.7.5-1.3zm.2 4.7c0-.6-.2-1-.5-1.3-.4-.3-.9-.5-1.6-.5h-.9v3.6h.8c.8 0 1.3-.2 1.7-.5.3-.2.5-.7.5-1.3zm7.9 2.9h-1.1v-.8c0 .1-.1.1-.2.3-.1.1-.2.2-.4.3-.2.1-.3.2-.6.3-.2.1-.5.1-.7.1-.3 0-.6 0-.9-.1-.3-.1-.5-.2-.6-.5-.2-.2-.3-.5-.4-.8-.1-.3-.1-.7-.1-1.2v-4.7h1.2v4.6c0 .6.1 1 .3 1.3.2.3.5.4.9.4.3 0 .6-.1.9-.3.2-.2.4-.3.6-.5v-5.5h1.2v7.1zm5.8 0V47c0-.6-.1-1-.3-1.3-.2-.3-.5-.4-.9-.4s-.7.1-.9.3c-.2.2-.4.4-.6.5v5.5h-1.2v-7.1h1.1v.8c0-.1.1-.1.2-.3.1-.1.2-.2.4-.3.2-.1.3-.2.6-.3.2-.1.5-.1.7-.1.3 0 .6 0 .9.1.3.1.5.2.7.5.2.2.3.5.4.8.1.3.1.7.1 1.2v4.7h-1.2zm2.6-3.5c0-.7.1-1.3.3-1.8.2-.5.4-.9.7-1.2.3-.3.6-.5 1-.6.4-.1.8-.2 1.1-.2.2 0 .4 0 .6.1.2 0 .3.1.4.1v-3.4l1.2-.1v10.6h-1.1v-.8c0 .1-.1.1-.2.2l-.3.3c-.1.1-.3.2-.5.3-.2.1-.5.1-.7.1-.3 0-.7-.1-1-.2-.3-.1-.6-.3-.8-.6-.2-.3-.4-.7-.5-1.1-.1-.4-.2-1-.2-1.7zm2.9 2.6c.2 0 .4 0 .5-.1.1 0 .3-.1.4-.2.1-.1.2-.1.3-.2l.2-.2v-4.4c-.1-.1-.2-.1-.4-.2-.1 0-.3-.1-.5-.1-.3 0-.5 0-.8.1-.2.1-.5.2-.6.5-.2.2-.3.5-.4.8-.1.3-.2.8-.2 1.3s0 .9.1 1.2c.1.3.2.6.3.8.1.2.3.3.5.4.2.3.4.3.6.3zm8.9-3.8v.8c0 .2 0 .4-.1.6h-3.6c0 .8.2 1.5.5 1.9.3.4.8.6 1.4.6.2 0 .4 0 .6-.1.2 0 .3-.1.4-.2.1-.1.2-.1.3-.2l.2-.2.4.8c0 .1-.1.1-.2.2s-.2.2-.4.3c-.2.1-.4.2-.6.2-.2.1-.5.1-.9.1s-.9-.1-1.2-.2c-.4-.1-.7-.4-.9-.7-.3-.3-.4-.7-.6-1.2-.1-.4-.2-1-.2-1.6 0-.6.1-1.2.2-1.6.1-.5.3-.8.6-1.1.2-.3.5-.5.9-.7.3-.1.7-.2 1.1-.2.7 0 1.2.2 1.6.6.3.4.5 1 .5 1.9zm-2.2-1.6c-.4 0-.8.2-1 .5-.3.4-.4.9-.4 1.5h2.6v-.5c0-.5-.1-.9-.3-1.2-.3-.2-.6-.3-.9-.3zm6.9.6l-.4-.4c-.2-.2-.5-.2-.8-.2-.3 0-.6.1-.7.2-.2.1-.3.3-.3.5 0 .3.1.5.2.7.2.2.4.4.7.6l.4.3c.5.3.9.6 1.1.9.3.3.4.8.4 1.3 0 .6-.2 1-.6 1.4-.4.4-1 .6-1.7.6-.3 0-.5 0-.8-.1-.2-.1-.4-.1-.6-.2-.2-.1-.3-.2-.4-.3l-.3-.3.6-1 .2.2c.1.1.2.2.3.2.1.1.3.1.4.2.1 0 .3.1.5.1.4 0 .6-.1.8-.2.2-.2.3-.4.3-.6 0-.2 0-.3-.1-.4 0-.1-.1-.2-.2-.3l-.3-.3c-.1-.1-.3-.2-.4-.3l-.4-.3c-.4-.3-.8-.6-1-.9-.3-.3-.4-.7-.4-1.2 0-.3.1-.5.2-.7.1-.2.2-.4.4-.6.2-.2.4-.3.7-.4.3-.1.5-.1.8-.1.3 0 .5 0 .7.1.2.1.4.1.5.2.1.1.3.2.4.3l.2.2-.4.8zm5.9 5.7V47c0-.6-.1-1-.3-1.3-.2-.3-.4-.4-.8-.4-.2 0-.4 0-.5.1-.2 0-.3.1-.4.2-.1.1-.2.2-.3.2-.1.2-.2.2-.3.3v5.5h-1.2v-7.1h1.1v.8c0-.1.1-.2.2-.3.1-.1.2-.2.4-.3.1-.1.3-.2.5-.3.2-.1.4-.1.7-.1.8 0 1.4.3 1.7 1l.3-.3c.1-.1.3-.2.4-.3.2-.1.3-.2.5-.2.2-.1.4-.1.7-.1 1.4 0 2.2.8 2.2 2.5v4.8h-1.2V47c0-.6-.1-1-.3-1.3-.2-.3-.5-.4-.9-.4-.3 0-.6.1-.8.2-.2.2-.4.3-.5.5v5.5h-1.2zm7.9 0h-1.2v-7.1h1.2v7.1zm-.6-8.8c-.2 0-.4-.1-.6-.2-.1-.2-.2-.4-.2-.6 0-.2.1-.5.2-.6.1-.2.3-.2.6-.2.2 0 .4.1.6.2.1.2.2.4.2.6 0 .3-.1.5-.2.6-.1.1-.3.2-.6.2zm6.4 8.8V47c0-.6-.1-1-.3-1.3-.2-.3-.5-.4-.9-.4s-.7.1-.9.3c-.2.2-.4.4-.6.5v5.5h-1.2v-7.1h1.1v.8c0-.1.1-.1.2-.3.1-.1.2-.2.4-.3.2-.1.3-.2.6-.3.2-.1.5-.1.7-.1.3 0 .6 0 .9.1.3.1.5.2.7.5.2.2.3.5.4.8.1.3.1.7.1 1.2v4.7h-1.2zm4.2 0h-1.2v-7.1h1.2v7.1zm-.6-8.8c-.2 0-.4-.1-.6-.2-.1-.2-.2-.4-.2-.6 0-.2.1-.5.2-.6.2-.2.3-.2.6-.2.2 0 .4.1.6.2.1.2.2.4.2.6 0 .3-.1.5-.2.6-.2.1-.4.2-.6.2zm5.5 3.1l-.4-.4c-.2-.2-.5-.2-.8-.2-.3 0-.6.1-.7.2-.2.1-.3.3-.3.5 0 .3.1.5.2.7.2.2.4.4.7.6l.4.3c.5.3.9.6 1.1.9.3.3.4.8.4 1.3 0 .6-.2 1-.6 1.4-.4.4-1 .6-1.7.6-.3 0-.5 0-.8-.1-.2-.1-.4-.1-.6-.2-.2-.1-.3-.2-.4-.3l-.3-.3.6-1 .2.2c.1.1.2.2.3.2.1.1.3.1.4.2.1 0 .3.1.5.1.4 0 .6-.1.8-.2.2-.2.3-.4.3-.6 0-.2 0-.3-.1-.4 0-.1-.1-.2-.2-.3l-.3-.3c-.1-.1-.3-.2-.4-.3l-.4-.3c-.4-.3-.8-.6-1-.9-.3-.3-.4-.7-.4-1.2 0-.3.1-.5.2-.7.1-.2.2-.4.4-.6.2-.2.4-.3.7-.4.3-.1.5-.1.8-.1.3 0 .5 0 .7.1.2.1.4.1.5.2.1.1.3.2.4.3l.2.2-.4.8zm5.2-.4h-1.6v4c0 .5.1.8.2 1 .1.2.3.3.7.3.2 0 .3 0 .5-.1.1 0 .2-.1.3-.1l.2 1-.4.2c-.2.1-.4.1-.8.1-.6 0-1.1-.2-1.4-.5-.3-.3-.5-.9-.5-1.7v-4.1h-.9v-.8l.9-.2.1-2h1.1v2h1.7l-.1.9zm5.8 1.4v.8c0 .2 0 .4-.1.6h-3.6c0 .8.2 1.5.5 1.9.3.4.8.6 1.4.6.2 0 .4 0 .6-.1.2 0 .3-.1.4-.2.1-.1.2-.1.3-.2l.2-.2.4.8c0 .1-.1.1-.2.2s-.2.2-.4.3c-.2.1-.4.2-.6.2-.2.1-.5.1-.9.1s-.8-.1-1.2-.2c-.4-.1-.7-.4-.9-.7-.3-.3-.4-.7-.6-1.2-.1-.5-.2-1.1-.2-1.7 0-.6.1-1.2.2-1.6.1-.5.3-.8.6-1.1.2-.3.5-.5.9-.7.3-.1.7-.2 1.1-.2.7 0 1.2.2 1.6.6.3.5.5 1.1.5 2zm-2.3-1.6c-.4 0-.8.2-1 .5-.3.4-.4.9-.4 1.5h2.6v-.5c0-.5-.1-.9-.3-1.2-.2-.2-.5-.3-.9-.3zm7 .2s-.1 0-.2-.1h-.4c-.4 0-.7.1-.9.3-.2.2-.4.4-.5.7v5.2h-1.2v-7.1h1.1v1c.1-.1.1-.3.2-.4.1-.1.2-.3.3-.4.1-.1.3-.2.4-.2.2-.1.4-.1.6-.1h.4c.1 0 .2.1.2.1v1zm2.4 6.1h-1.2v-7.1h1.2v7.1zm-.6-8.8c-.2 0-.4-.1-.6-.2-.1-.2-.2-.4-.2-.6 0-.2.1-.5.2-.6.2-.2.3-.2.6-.2.2 0 .4.1.6.2.1.2.2.4.2.6 0 .3-.1.5-.2.6-.1.1-.3.2-.6.2zm7.5 8.8h-1.1v-.8c0 .1-.1.1-.2.3-.1.1-.2.2-.4.3-.2.1-.3.2-.6.3-.2.1-.5.1-.7.1-.3 0-.6 0-.9-.1-.3-.1-.5-.2-.6-.5-.2-.2-.3-.5-.4-.8-.1-.3-.1-.7-.1-1.2v-4.7h1.2v4.6c0 .6.1 1 .3 1.3.2.3.5.4.9.4.3 0 .6-.1.9-.3.2-.2.4-.3.6-.5v-5.5h1.2v7.1zm5.5 0V47c0-.6-.1-1-.3-1.3-.2-.3-.4-.4-.8-.4-.2 0-.4 0-.5.1-.2 0-.3.1-.4.2-.1.1-.2.2-.3.2l-.2.2v5.5h-1.2v-7.1h1.1v.8c0-.1.1-.2.2-.3.1-.1.2-.2.4-.3.1-.1.3-.2.5-.3.2-.1.4-.1.7-.1.8 0 1.4.3 1.7 1l.3-.3c.1-.1.3-.2.4-.3.2-.1.3-.2.5-.2.2-.1.4-.1.7-.1 1.4 0 2.2.8 2.2 2.5v4.8h-1.2V47c0-.6-.1-1-.3-1.3-.2-.3-.5-.4-.9-.4-.3 0-.6.1-.8.2-.2.2-.4.3-.5.5v5.5h-1.3zm-93.5 8.8h-1.5v6.2h-1.2v-6.2h-.9v-.8l.9-.2V58c0-.4.1-.7.2-1 .1-.3.3-.5.4-.7.2-.2.4-.3.6-.4.2-.1.5-.1.8-.1.3 0 .5 0 .7.1.2.1.3.1.4.2l-.3 1c-.1 0-.1-.1-.3-.1-.1 0-.2-.1-.4-.1-.3 0-.5.1-.7.3-.1.2-.2.5-.2 1v1.3h1.6l-.1.9zm6.1 6.2h-1.1v-.8c0 .1-.1.1-.2.3-.1.1-.2.2-.4.3-.2.1-.3.2-.6.3-.2.1-.5.1-.7.1-.3 0-.6 0-.9-.1-.3-.1-.5-.2-.6-.5-.2-.2-.3-.5-.4-.8-.1-.3-.1-.7-.1-1.2v-4.7h1.2v4.6c0 .6.1 1 .3 1.3.2.3.5.4.9.4.3 0 .6-.1.9-.3.2-.2.4-.3.6-.5v-5.5h1.2v7.1zm-2.9-9.2c0 .2-.1.4-.2.5-.1.1-.3.2-.5.2s-.4-.1-.5-.2c-.1-.1-.2-.3-.2-.5s.1-.4.2-.5c.1-.1.3-.2.5-.2s.4.1.5.2c.1.1.2.3.2.5zm2.3 0c0 .2-.1.4-.2.5-.1.1-.3.2-.5.2s-.4-.1-.5-.2c-.1-.1-.2-.3-.2-.5s.1-.4.2-.5c.1-.1.3-.2.5-.2s.4.1.5.2c.1.1.2.3.2.5zm5.6 3.1s-.1 0-.2-.1h-.4c-.4 0-.7.1-.9.3-.2.2-.4.4-.5.7v5.2h-1.2v-7.1h1.1v1c0-.1.1-.3.2-.4.1-.1.2-.3.3-.4.1-.1.3-.2.4-.2.2-.1.4-.1.6-.1h.4c.1 0 .2.1.2.1v1zM81 59c0 .4 0 .7-.1.9-.1.3-.2.5-.4.7l-.5.5-.6.3c.3 0 .5.1.7.3.2.1.4.3.6.5.2.2.3.5.4.7.1.3.2.6.2.9 0 .4-.1.8-.2 1.1-.1.3-.4.6-.6.9-.3.2-.7.4-1.1.6-.4.1-1 .2-1.6.2h-2.1V56.3h2c.6 0 1.1.1 1.6.2.4.1.8.3 1.1.5.3.2.5.5.6.8V59zm-1.3 0c0-.5-.2-.9-.5-1.2-.3-.3-.9-.5-1.6-.5H77v3.5h.7c.7 0 1.2-.2 1.6-.5.3-.2.4-.7.4-1.3zm.2 4.7c0-.6-.2-1-.5-1.3-.4-.3-.9-.5-1.6-.5H77v3.6h.8c.8 0 1.3-.2 1.7-.5.3-.2.4-.7.4-1.3zm4.2 2.9h-1.2v-7.1h1.2v7.1zm-.6-8.9c-.2 0-.4-.1-.6-.2-.1-.2-.2-.4-.2-.6 0-.2.1-.4.2-.6.1-.2.3-.2.6-.2.2 0 .4.1.6.2.1.2.2.4.2.6 0 .3-.1.5-.2.6-.2.2-.4.2-.6.2zm3.6 7.2c0 .3 0 .5.1.6.1.1.2.2.4.2h.3c.1 0 .1 0 .2-.1l.1.9c-.1 0-.2.1-.3.1-.2.1-.4.1-.6.1-.4 0-.7-.1-1-.4-.2-.2-.4-.7-.4-1.3v-8.9l1.2-.1v8.9zm1.9-1.8c0-.7.1-1.3.3-1.8.2-.5.4-.9.7-1.2.3-.3.6-.5 1-.6.4-.1.8-.2 1.1-.2.2 0 .4 0 .6.1.2 0 .3.1.4.1v-3.4l1.2-.1v10.6h-1.1v-.8c0 .1-.1.1-.2.2l-.3.3c-.1.1-.3.2-.5.3-.2.1-.5.1-.7.1-.3 0-.7-.1-1-.2-.3-.1-.6-.3-.8-.6-.2-.3-.4-.7-.5-1.1-.1-.5-.2-1-.2-1.7zm2.8 2.6c.2 0 .4 0 .5-.1.1 0 .3-.1.4-.2.1-.1.2-.2.3-.2l.2-.2v-4.4c-.1-.1-.2-.1-.4-.2-.1 0-.3-.1-.5-.1-.3 0-.5 0-.8.1-.2.1-.5.3-.6.5-.2.2-.3.5-.4.8-.1.3-.2.8-.2 1.3s0 .9.1 1.2c.1.3.2.6.4.8.1.2.3.3.5.4.1.3.3.3.5.3zm9.4.9h-1.1v-.8c0 .1-.1.1-.2.3-.1.1-.2.2-.4.3-.2.1-.3.2-.6.3-.2.1-.5.1-.7.1-.3 0-.6 0-.9-.1-.3-.1-.5-.2-.6-.5-.2-.2-.3-.5-.4-.8-.1-.3-.1-.7-.1-1.2v-4.7h1.2v4.6c0 .6.1 1 .3 1.3.2.3.5.4.9.4.3 0 .6-.1.9-.3.2-.2.4-.3.6-.5v-5.5h1.2v7.1zm5.7 0V62c0-.6-.1-1-.3-1.3-.2-.3-.5-.4-.9-.4s-.7.1-.9.3c-.2.2-.4.4-.6.5v5.5H103v-7.1h1.1v.8c0-.1.1-.1.2-.3.1-.1.2-.2.4-.3.2-.1.3-.2.6-.3.2-.1.5-.1.7-.1.3 0 .6 0 .9.1.3.1.5.2.7.5.2.2.3.5.4.8.1.3.1.7.1 1.2v4.7h-1.2zm8.1-6.2h-.9c.2.4.3.8.3 1.3 0 .4-.1.7-.2 1-.1.3-.3.6-.5.8-.2.2-.5.4-.8.5-.3.1-.6.2-1 .2h-.4c-.1.1-.2.1-.4.2-.1.1-.2.3-.2.4 0 .1.1.3.2.4.1.1.3.1.6.1h.9c.3 0 .6 0 .9.1.3.1.5.2.7.3.2.2.4.3.5.6.1.2.2.5.2.9s-.1.7-.2 1.1c-.2.3-.4.6-.7.8-.3.2-.7.4-1.1.5-.4.1-.9.2-1.4.2-.8 0-1.3-.2-1.7-.5-.4-.3-.6-.8-.6-1.4 0-.3 0-.5.1-.7.1-.2.2-.4.3-.5.1-.1.3-.3.4-.3.1-.1.2-.2.3-.2-.3-.2-.5-.6-.5-1 0-.2 0-.4.1-.5.1-.1.2-.3.3-.3.1-.1.2-.2.3-.2.1-.1.2-.1.2-.1-.4-.2-.7-.4-.9-.8-.2-.4-.3-.8-.3-1.4 0-.4.1-.7.2-1 .1-.3.3-.6.5-.8.2-.2.5-.3.8-.4.3-.1.6-.1.9-.1.3 0 .7.1.9.2h2.2v.6zm-3.3 6h-.5c-.1.1-.2.1-.3.2-.1.1-.2.2-.2.3-.1.1-.1.2-.2.3 0 .1-.1.3-.1.5 0 .8.4 1.1 1.3 1.1.7 0 1.3-.1 1.6-.4.3-.3.5-.6.5-1 0-.3-.1-.6-.3-.7-.2-.1-.5-.2-.9-.2h-.9zm1.6-4.7c0-.5-.1-.9-.4-1.1-.2-.2-.5-.3-.9-.3-.3 0-.6.1-.9.3-.2.2-.4.6-.4 1.1 0 .5.1.9.4 1.1.2.2.5.3.9.3.3 0 .6-.1.9-.3.3-.2.4-.6.4-1.1zM62.2 81.6h-1.1v-.8c0 .1-.1.1-.2.3-.1.1-.2.2-.4.3-.2.1-.3.2-.6.3-.2.1-.5.1-.7.1-.3 0-.6 0-.9-.1-.3-.1-.5-.2-.6-.5-.2-.2-.3-.5-.4-.8-.1-.3-.1-.7-.1-1.2v-4.7h1.2V79c0 .6.1 1 .3 1.3.2.3.5.4.9.4.3 0 .6-.1.9-.3.2-.2.4-.3.6-.5v-5.5h1.2v7.2zm5.8 0V77c0-.6-.1-1-.3-1.3-.2-.3-.5-.4-.9-.4s-.7.1-.9.3c-.2.2-.4.4-.6.5v5.5h-1.2v-7.1h1.1v.8c0-.1.1-.1.2-.3.1-.1.2-.2.4-.3.2-.1.3-.2.6-.3.2-.1.5-.1.7-.1.3 0 .6 0 .9.1.3.1.5.2.7.5.2.2.3.5.4.8.1.3.1.7.1 1.2v4.7H68zm2.7-3.5c0-.7.1-1.3.3-1.8.2-.5.4-.9.7-1.2.3-.3.6-.5 1-.6.4-.1.8-.2 1.1-.2.2 0 .4 0 .6.1.2 0 .3.1.4.1v-3.4L76 71v10.6h-1.1v-.8c0 .1-.1.1-.2.2l-.3.3c-.1.1-.3.2-.5.3-.2.1-.5.1-.7.1-.3 0-.7-.1-1-.2-.3-.1-.6-.3-.8-.6-.2-.3-.4-.7-.5-1.1-.2-.5-.2-1-.2-1.7zm2.8 2.6c.2 0 .4 0 .5-.1.1-.1.3-.1.4-.2.1-.1.2-.2.3-.2l.2-.2v-4.4c-.1-.1-.2-.1-.4-.2-.1-.1-.3-.1-.5-.1-.3 0-.5 0-.8.1-.2.1-.5.3-.6.5-.2.2-.3.5-.4.8-.1.3-.2.8-.2 1.3s0 .9.1 1.2c.1.3.2.6.3.8.1.2.3.3.5.4.2.2.4.3.6.3zm7.8.9V71.3h5l-.1 1h-3.7v3.8h3.4v1h-3.4v4.4h-1.2zm5.9-3.6c0-.7.1-1.2.2-1.7.2-.5.4-.9.6-1.2.3-.3.6-.5.9-.7.3-.1.7-.2 1.1-.2.4 0 .8.1 1.1.2.3.1.6.4.9.7.2.3.4.7.6 1.2.1.5.2 1 .2 1.7s-.1 1.2-.2 1.7-.4.9-.6 1.2c-.3.3-.6.5-.9.7-.3.1-.7.2-1.1.2-.4 0-.8-.1-1.1-.2-.3-.1-.6-.4-.9-.7-.2-.3-.4-.7-.6-1.2-.1-.4-.2-1-.2-1.7zm4.4 0c0-1-.1-1.6-.4-2.1-.3-.4-.7-.6-1.2-.6s-.9.2-1.2.6c-.3.4-.4 1.1-.4 2.1s.1 1.6.4 2c.3.4.7.6 1.2.6s.9-.2 1.2-.6c.3-.4.4-1 .4-2zm5.9-2.5s-.1 0-.2-.1h-.4c-.4 0-.7.1-.9.3-.2.2-.4.4-.5.7v5.2h-1.2v-7.1h1.1v1c0-.1.1-.3.2-.4.1-.1.2-.3.3-.4.1-.1.3-.2.4-.2.2-.1.4-.1.6-.1h.4c.1 0 .2.1.2.1v1zm4.2.4l-.4-.4c-.2-.2-.5-.2-.8-.2-.3 0-.6.1-.7.2-.2.1-.3.3-.3.5 0 .3.1.5.2.7.2.2.4.4.7.6l.4.3c.5.3.9.6 1.1.9.3.3.4.8.4 1.3 0 .6-.2 1-.6 1.4-.4.4-1 .6-1.7.6-.3 0-.5 0-.8-.1-.2-.1-.4-.1-.6-.2-.2-.1-.3-.2-.4-.3l-.3-.3.6-1 .2.2c.1.1.2.2.3.2.1.1.3.1.4.2.1.1.3.1.5.1.4 0 .6-.1.8-.2.2-.2.3-.3.3-.6 0-.2 0-.3-.1-.4 0-.1-.1-.2-.2-.3l-.3-.3c-.1-.1-.3-.2-.4-.3l-.4-.3c-.4-.3-.8-.6-1-.9-.3-.3-.4-.7-.4-1.2 0-.3.1-.5.2-.7.1-.2.2-.4.4-.6.2-.2.4-.3.7-.4.3-.1.5-.1.8-.1.3 0 .5 0 .7.1.2.1.4.1.5.2.1.1.3.2.4.3l.2.2-.4.8zm6.1-.1l-.1-.1-.2-.2c-.1-.1-.2-.1-.4-.2-.1 0-.3-.1-.5-.1-.3 0-.5 0-.7.1-.2.1-.4.2-.6.5-.2.2-.3.5-.4.8-.1.3-.1.7-.1 1.2s0 1 .1 1.3c.1.4.2.6.3.9.1.2.3.4.5.5.2.1.4.1.7.1.4 0 .6-.1.8-.2.2-.1.3-.2.4-.3l.5.8c0 .1-.1.1-.2.2s-.2.2-.4.2c-.1.1-.3.1-.5.2s-.5.1-.7.1c-.4 0-.8-.1-1.1-.2-.3-.1-.6-.3-.9-.6-.3-.3-.5-.7-.6-1.2-.1-.5-.2-1.1-.2-1.8s.1-1.3.3-1.7c.2-.5.4-.9.7-1.2.3-.3.6-.5 1-.6.4-.1.7-.2 1.1-.2.3 0 .5 0 .7.1.2 0 .4.1.5.2.1.1.3.2.4.2l.2.2-.6 1zm5.6 5.8V77c0-.6-.1-1-.3-1.3-.2-.3-.5-.4-.9-.4s-.7.1-.9.3c-.2.2-.4.4-.6.5v5.5h-1.2V71.1l1.2-.1v4.2c0-.1.1-.1.2-.2l.3-.3c.1-.1.3-.2.5-.3.2-.1.5-.1.8-.1.6 0 1.1.2 1.5.6.4.4.6 1.1.6 2v4.7h-1.2zm8 0h-1.1v-.8c0 .1-.1.1-.2.3-.1.1-.2.2-.4.3-.2.1-.3.2-.6.3-.2.1-.5.1-.7.1-.3 0-.6 0-.9-.1-.3-.1-.5-.2-.6-.5-.2-.2-.3-.5-.4-.8-.1-.3-.1-.7-.1-1.2v-4.7h1.2V79c0 .6.1 1 .3 1.3.2.3.5.4.9.4.3 0 .6-.1.9-.3.2-.2.4-.3.6-.5v-5.5h1.2v7.2zm5.8 0V77c0-.6-.1-1-.3-1.3-.2-.3-.5-.4-.9-.4s-.7.1-.9.3c-.2.2-.4.4-.6.5v5.5h-1.2v-7.1h1.1v.8c0-.1.1-.1.2-.3.1-.1.2-.2.4-.3.2-.1.3-.2.6-.3.2-.1.5-.1.7-.1.3 0 .6 0 .9.1.3.1.5.2.7.5.2.2.3.5.4.8.1.3.1.7.1 1.2v4.7h-1.2zm8.1-6.2h-.9c.2.4.3.8.3 1.3 0 .4-.1.7-.2 1-.1.3-.3.6-.5.8-.2.2-.5.4-.8.5-.3.1-.6.2-1 .2h-.4c-.1.1-.2.1-.4.2-.1.1-.2.3-.2.4 0 .1.1.3.2.4.1.1.3.1.6.1h.9c.3 0 .7 0 .9.1.3.1.5.2.8.3.2.2.4.3.5.6.1.2.2.5.2.9s-.1.7-.2 1.1c-.2.3-.4.6-.7.8-.3.2-.7.4-1.1.5-.4.1-.9.2-1.4.2-.8 0-1.3-.2-1.7-.5-.4-.3-.6-.8-.6-1.4 0-.3 0-.5.1-.7.1-.2.2-.4.3-.5.1-.1.3-.3.4-.3.1-.1.2-.2.3-.2-.3-.2-.5-.6-.5-1 0-.2 0-.4.1-.5l.3-.3c.1-.1.2-.2.3-.2.1-.1.2-.1.2-.1-.4-.2-.7-.4-.9-.8-.2-.4-.3-.8-.3-1.4 0-.4.1-.7.2-1 .1-.3.3-.6.5-.8.2-.2.5-.3.8-.4.3-.1.6-.1.9-.1.3 0 .7.1 1 .2h2.2l-.2.6zm-3.3 6h-.5c-.1 0-.2.1-.3.2-.1.1-.2.2-.2.3-.1.1-.1.2-.2.3 0 .1-.1.3-.1.5 0 .8.4 1.1 1.3 1.1.7 0 1.3-.1 1.6-.4.3-.3.5-.6.5-1 0-.3-.1-.6-.3-.7-.2-.1-.5-.2-.9-.2h-.9zm1.6-4.7c0-.5-.1-.9-.4-1.1-.2-.2-.5-.3-.9-.3-.3 0-.6.1-.9.3-.2.2-.4.6-.4 1.1 0 .5.1.9.4 1.1.2.2.5.3.9.3.3 0 .6-.1.9-.3.2-.3.4-.6.4-1.1z"/><path fill="#f5ce00" d="M46.3 91.6h1.9v24.9h-4.4V91.6z"/><path fill="#ed1c24" d="M46.3 66.5h1.9v25.1h-4.4V66.5z"/><path class="st3" d="M32.5 50.4c1.3 2 2.3 2 3.8 2-1.3-1-2.1-2.2-2.5-2.8l-2.3-3.7c-.2-1.2-.8-2.2-1.7-3 .3-.1.5-.2.7-.3-1.5 0-3-.8-3.9-.8-.5 0-.9.3-.9.7 0 .5.5.9 1.4.9.2 0 .5 0 .7-.1.5.7.9 1.3.9 2.2 0 1.6-2 2.9-3.9 2.9h-.3c-.2-.4-.8-1.1-.8-1.9 0-1.3.8-2.4.8-3.6 0-.8-.4-1.3-.5-1.5.2-.2.5-.5.6-.7-.1.1-.3.1-.6.1-.9 0-1.7-.2-2.5-.2-.4 0-.5.1-.5.3v.1c-.2-.1-.3-.1-.5-.1s-.5-.1-.7-.1c-.9 0-1.2.4-1.2.7 0 .3.2.8.5 1.2.4-.2.8-.3 1-.3.5 0 .9.5 1.1 1-.3 0-.4.1-.7.1-.9 0-1.5-.3-1.6-.3 0 .1.3.5.7.6.7.2 1.6.3 1.8.4 0 0-.2.3-.4.4h-.1c-.7-.1-.9-.2-1.7-.5 0 .3.9 1.1 1.7 1.4-.7.9-1.5 1.7-1.9 3h-.3c-2 0-3.9-1.3-3.9-2.9 0-.9.4-1.5.9-2.2.3 0 .5.1.7.1.9 0 1.4-.5 1.4-.9s-.3-.7-.9-.7c-.8 0-2.3.8-3.9.8.2.1.4.2.7.3-.9.8-1.5 1.9-1.7 3l-2.3 3.7c-.4.6-1.2 1.9-2.5 2.8 1.5 0 2.5 0 3.8-2l1.2-1.9c.1.2.2.5.3.7L10 53c-.4.6-1.2 1.8-2.5 2.8 1.5 0 2.5 0 3.8-2l2-3.3.5.5-2.8 4.6c-.4.6-1.2 1.8-2.5 2.8 1.5 0 2.5 0 3.8-2l2.8-4.5.6.3-3.4 5.5c-.4.6-1.2 1.8-2.5 2.8 1.5 0 2.5 0 3.8-2l3.5-5.7c.2.1.4.2.6.2l-4 6.4c-.4.6-1.2 1.9-2.5 2.8 1.5 0 2.5 0 3.8-2l4.3-6.8h.1c.1.4.2.7.2 1.1 0 2.1-1.4 4-3.1 5.5.1 0 .3.1.5.1h.7c-.4.9-1.2 2-1.7 2.6-.6-.1-1.4-.2-1.9-.2-.6 0-.6.3-.6.6 0 .5.2.9.5 1.1.1-.3.3-.6 1.3-.6h.1c-.3.3-1.2 1.1-1.2 1.7 0 .4.4 1 1 1V66c0-.5.4-1.1.8-1.5v.2c0 1.2.1 1.7.8 1.7.4 0 .6-.2.7-.3-.5-.4-.5-.8-.5-1.4v-1.1h.6s1-.1 1.3.5c.3-.3.7-.6.7-1 0-.3-.1-.6-.7-.6-.2 0-.8.1-1.4.1.1-.3.8-1.3 1.3-1.9.1.3.2.6.5.8 0-.4.3-1.8 1-2.6.1.5.2 1.1.2 2.3 0 2.9-.7 5-2.2 5.4.2.3.6.6 1 .6.5 0 .8-.6 1.1-1.2.2.4.6 1.5 1 1.5s.9-1 1-1.5c.3.6.6 1.2 1.1 1.2.4 0 .8-.3 1-.6-1.5-.4-2.2-2.5-2.2-5.4 0-1.2.1-1.8.2-2.3.7.8.9 2.2 1 2.6.3-.2.4-.5.5-.8.6.7 1.2 1.6 1.3 1.9-.5 0-1.2-.1-1.4-.1-.5 0-.7.3-.7.6 0 .4.4.8.7 1 .3-.5 1.3-.5 1.3-.5h.6v1.1c0 .7 0 1-.5 1.4.1.1.3.3.7.3.7 0 .8-.5.8-1.7v-.2c.4.4.8 1 .8 1.5v.3c.6 0 1-.6 1-1 0-.6-.9-1.4-1.2-1.7h.1c1 0 1.2.3 1.3.6.3-.2.5-.6.5-1.1 0-.3-.1-.6-.6-.6s-1.3.1-1.9.2c-.4-.6-1.3-1.7-1.7-2.6h.7c.2 0 .4 0 .5-.1-1.7-1.5-3.1-3.4-3.1-5.5 0-.3.1-.7.2-1.1h.1l4.3 6.8c1.3 2 2.3 2 3.8 2-1.2-1-2.1-2.2-2.5-2.8l-4-6.4c.2-.1.4-.1.6-.2l3.5 5.7c1.3 2 2.3 2 3.8 2-1.3-1-2.1-2.2-2.5-2.8l-3.4-5.5.6-.3 2.8 4.5c1.3 2 2.3 2 3.8 2-1.3-1-2.1-2.2-2.5-2.8L29.5 51l.5-.5 2 3.3c1.3 2 2.3 2 3.8 2-1.3-1-2.1-2.2-2.5-2.8l-2.4-3.8c.1-.2.2-.5.3-.7l1.3 1.9zM13.4 46c0-1.4 1-2.6 1.4-2.9.1 0 .2 0 .3.1-.4.5-1.1 1.3-1.1 2.3 0 2.1 2.2 3.9 4.7 3.9v1.5c-2.8-.1-5.3-2.4-5.3-4.9zm3.8 17H19c.2 0 .4 0 .4.3 0 .2-.2.4-.4.6-.3-.3-.7-.3-1.3-.3-.3 0-.6 0-.8.1v.1c0 .2.1.4.1.7v.6c0 .7.1 1.1.3 1.4h-.2c-.4 0-.5-.2-.5-1.4v-.8h-.1c-.6.5-1.3 1.3-1.3 2-.2-.1-.4-.4-.4-.6 0-.3.5-.9 1.1-1.5l.3-.3h-.1c-.1 0-.4-.1-.6-.1-.7 0-1.1.1-1.4.4-.1-.1-.2-.5-.2-.6 0-.1 0-.2.1-.3.1-.1.2-.1.2-.1.8 0 1.6.1 2 .2.1-.1 1.5-2 1.9-3 .1 0 .2-.1.3-.1.3 0 .4.2.4.5-.8.8-1.4 1.7-1.6 2.2zm7.7-3c.1 0 .2 0 .3.1.4 1 1.8 2.9 1.9 3 .3-.1 1.2-.2 2-.2.1 0 .2 0 .2.1 0 0 .1.1.1.3 0 .2-.1.5-.2.6-.3-.3-.7-.4-1.4-.4-.2 0-.4.1-.6.1H27l.4.4c.6.6 1.1 1.1 1.1 1.5 0 .2-.2.5-.4.6 0-.6-.7-1.5-1.3-2l.2-.1v.8c0 1.2-.1 1.4-.5 1.4h-.2c.2-.3.3-.7.3-1.4v-.6c0-.3 0-.5.1-.7v-.1h-.1c-.2 0-.6-.1-.8-.1-.6 0-1 .1-1.3.3-.2-.2-.4-.4-.4-.6 0-.3.2-.3.4-.3h.3c.3 0 .6.1 1.4.1-.2-.6-.8-1.4-1.7-2.5.1-.1.1-.3.4-.3zm-3.3-16.6c-.1-.4-.3-.7-.5-1-.2-.3-.6-.6-1.1-.6-.2 0-.6.1-.8.2-.1-.2-.3-.6-.3-.7 0-.2.3-.4.9-.4 1.3 0 2.1.6 2.1 1.6 0 .3-.2.7-.3.9zm.6-1.2c0-.3-.2-.5-.3-.7 0-.3.1-.5.5-.3-.2.2-.1.6-.1.6s.4-.2.4-.5c.7.1.2 1-.5.9zm2.5 8.6c0-.3.1-.6.1-.9v-.6c2.5 0 4.7-1.8 4.7-3.9 0-1-.7-1.8-1.1-2.3.1 0 .2 0 .3-.1.3.4 1.3 1.5 1.3 3 0 2.4-2.5 4.7-5.3 4.8zm23.5-9.2v25h-4.4v-25z"/></g><path class="st3" d="M60.4 12c0-.7-.3-1.1-1.1-1.1-.3 0-1.2 0-1.2 1.4v2.1c0 1.4.4 1.7 1.2 1.7.6 0 1-.2 1.1-.3v-1.9h-1.2v-.7h2v3.1c-.5.3-1.1.5-1.9.5-1.3 0-2-.7-2-2.4v-2.1c0-1.3.6-2.1 2-2.1s2 .5 2 1.8h-.9zm2.3 4.6v-6.3H66v.7h-2.5v2h2.3v.7h-2.3v2.2H66v.7h-3.3zm4.3 0v-6.3h3.1v.7h-2.3v2H70v.7h-2.2v2.9H67zm3.9-2.3v-2.1c0-1.3.6-2.1 2-2.1 1.3 0 2 .8 2 2.1v2.1c0 1.8-.6 2.4-2 2.4-1.3 0-2-.7-2-2.4zm1.7-4.8h-.8v-.9h.8v.9zm1.5 4.8v-2.1c0-1.3-.9-1.4-1.2-1.4-.3 0-1.2 0-1.2 1.4v2.1c0 1.4.4 1.7 1.2 1.7.8 0 1.2-.3 1.2-1.7zm0-4.8h-.8v-.9h.8v.9zm3 4.2v2.9h-.8v-6.3h2.2c1.1 0 1.5.8 1.5 1.6 0 .7-.4 1.3-1.2 1.4.7.1 1 .4 1 1.6 0 .3.1 1.3.2 1.7h-.8c-.2-.4-.2-1.3-.2-2.1-.1-.8-.7-.8-1-.8h-.9zm0-.7h1.2c.6 0 .9-.5.9-1.1 0-.5-.2-1-.8-1h-1.2V13zm4.1-2.7h1.9c.8 0 1.4.3 1.7 1 .3.5.3 1.8.3 2 0 1.3-.1 2.1-.4 2.5-.3.5-1 .8-2.1.8h-1.5v-6.3zm.8 5.6h.8c1.1 0 1.5-.4 1.5-1.9v-1.3c0-1.3-.4-1.8-1.2-1.8H82v5zm4.5.7v-6.3h3.3v.7h-2.5v2h2.3v.7h-2.3v2.2h2.5v.7h-3.3zm5.2-2.9v2.9h-.8v-6.3H93c1.1 0 1.5.8 1.5 1.6 0 .7-.4 1.3-1.2 1.4.7.1 1 .4 1 1.6 0 .3.1 1.3.2 1.7h-.8c-.2-.4-.2-1.3-.2-2.1-.1-.8-.7-.8-1-.8h-.8zm0-.7h1.2c.6 0 .9-.5.9-1.1 0-.5-.2-1-.8-1h-1.2V13zm7.6-2.7v.7h-1.7v5.6h-.8V11h-1.7v-.7h4.2zm5 6.3h-1l-1.8-6.3h.9l1.4 5.6 1.5-5.6h.8l-1.8 6.3zm2.6-2.3v-2.1c0-1.3.6-2.1 2-2.1 1.3 0 2 .8 2 2.1v2.1c0 1.8-.6 2.4-2 2.4-1.3 0-2-.7-2-2.4zm3.2 0v-2.1c0-1.3-.9-1.4-1.2-1.4s-1.2 0-1.2 1.4v2.1c0 1.4.4 1.7 1.2 1.7.8 0 1.2-.3 1.2-1.7zm2.9 2.3h-.8v-6.3h1.3l1.6 5.3 1.6-5.3h1.3v6.3h-.8V11l-1.8 5.6h-.8l-1.7-5.6v5.6z" id="Ebene_3"/></svg>